# xmcd
# Track frame offsets:
# 150
# 17946
# 34735
# 49357
# 67418
# 86084
# 104509
# 116379
# 134349
# 156867
# 173419
# 191216
# 209229
# 228886
# 245593
#
# Disc length: 3464 seconds
# Revision: 0
# Processed by: cddbd v1.5.1PL0 Copyright (c) Steve Scherf et al.
# Submitted via: VisiTrax 2.9.10.228 - For more info visit www.synapsa.com
#
DISCID=df0d860f
DTITLE=Tritt, Travis - CB90045
DYEAR=1900
DGENRE=Karaoke
TTITLE0=Anymore
TTITLE1=Can I Trust You With My Heart
TTITLE2=Country Club
TTITLE3=Drift Off To Dream
TTITLE4=I'm Gonna Be Somebody
TTITLE5=Help Me Hold On
TTITLE6=Here's A Quarter
TTITLE7=If I Lost You
TTITLE8=Lord Have Mercy On The Working Man
TTITLE9=More Than You'll Ever Know
TTITLE10=No More Looking Over My Shoulder
TTITLE11=Nothing Short Of Dying
TTITLE12=Put Some Drive In Your Country
TTITLE13=Ten Feet Tall and Bulletproof
TTITLE14=T-R-O-U-B-L-E
EXTD=
EXTT0=
EXTT1=
EXTT2=
EXTT3=
EXTT4=
EXTT5=
EXTT6=
EXTT7=
EXTT8=
EXTT9=
EXTT10=
EXTT11=
EXTT12=
EXTT13=
EXTT14=
PLAYORDER=
